<svg xmlns="http://www.w3.org/2000/svg" viewBox="300.588 289.688 84.024 75.125">
  <defs>
    <style>
      .cls-1 {
        fill: #fff;
      }

      .cls-2 {
        fill: none;
        stroke: #fff;
        stroke-width: 0.824px;
      }

      .cls-3 {
        fill: #f48220;
      }

      .cls-4 {
        fill: #08519f;
      }
    </style>
  </defs>
  <g id="XMLID_34_" transform="translate(300.6 289.701)">
    <path id="XMLID_41_" class="cls-1" d="M83.6,22V11.8S83.3.3,69.3.4H14.5C.7.3.4,13.4.4,11.8V63.7s.3,9.5,12,10.9l.8.1,58.2-.1C83.3,73.3,83.5,63,83.5,63.7V30.8Z"/>
    <path id="XMLID_40_" class="cls-2" d="M83.6,22V11.8S83.3.3,69.3.4H14.5C.7.3.4,13.4.4,11.8V63.7s.3,9.5,12,10.9l.8.1,58.2-.1C83.3,73.3,83.5,63,83.5,63.7V30.8Z"/>
    <path id="XMLID_39_" class="cls-3" d="M36.7.4,26.6,15.1s9.9-7.3,16.9-6.2c0,0,4.3.5,12.4,5.9l11,6.8S49.4,18.8,33,23.9c0,0-27.5,7.9-32.6,35.7v-48S.7.2,14.6.3H36.7Z"/>
    <path id="XMLID_38_" class="cls-3" d="M83.6,11.7S83.3.3,69.4.4H47.9L83.6,22Z"/>
    <path id="XMLID_35_" class="cls-4" d="M51.5,62.5a8.9,8.9,0,1,1,8.9-8.9,8.92,8.92,0,0,1-8.9,8.9m-22-27.2C6.8,51.6,13.2,74.7,13.2,74.7H71.5c11.8-1.5,12-11,12-11V30.8s-31.2-11.9-54,4.5"/>
  </g>
</svg>
