<?xml version="1.0" encoding="utf-8"?>
<!-- Generator: Adobe Illustrator 19.1.0, SVG Export Plug-In . SVG Version: 6.00 Build 0)  -->
<svg version="1.1" id="Capa_1" xmlns="http://www.w3.org/2000/svg" xmlns:xlink="http://www.w3.org/1999/xlink" x="0px" y="0px"
	 viewBox="590.5 13.5 11 11" style="enable-background:new 590.5 13.5 11 11;" xml:space="preserve">
<style type="text/css">
	.st0{fill:#9F9F9F;}
</style>
<g>
	<g id="Clock">
		<g>
			<path class="st0" d="M598.5,18.5h-1.9v-2.3c0-0.3-0.2-0.5-0.5-0.5s-0.5,0.2-0.5,0.5v3.4h3c0.3,0,0.5-0.2,0.5-0.5
				S598.8,18.5,598.5,18.5z M596,13.5c-3,0-5.5,2.5-5.5,5.5s2.5,5.5,5.5,5.5s5.5-2.5,5.5-5.5S599,13.5,596,13.5z M596,23.4
				c-2.4,0-4.4-2-4.4-4.4s2-4.4,4.4-4.4s4.4,2,4.4,4.4S598.4,23.4,596,23.4z"/>
		</g>
	</g>
</g>
</svg>
